<svg width="60" height="60" viewBox="0 0 60 60" fill="none" xmlns="http://www.w3.org/2000/svg">
<path d="M18.5625 1.98056C18.1172 2.25009 17.7422 2.74228 17.2266 3.71494C16.875 4.40634 16.8164 4.45322 16.4414 4.45322C16.2188 4.45322 15.7734 4.5704 15.4453 4.71103L14.8594 4.95712L13.1953 4.13681C11.332 3.19931 10.4883 2.89462 8.97656 2.63681C7.10156 2.3204 4.96875 2.47275 3.16406 3.0704C2.14453 3.41025 1.75781 3.8204 1.75781 4.5704C1.75781 5.004 1.82812 5.21494 2.03906 5.47275C2.22656 5.68369 4.06641 6.6915 7.25391 8.32041C10.1484 9.79697 12.1875 10.9102 12.1875 11.004C12.1875 11.0977 12.293 11.3907 12.4336 11.6602L12.6797 12.1524L8.73047 19.4649C6.5625 23.4845 4.75781 26.9063 4.73438 27.0704C4.57031 27.8321 5.64844 28.3243 6.17578 27.7384C6.31641 27.5977 8.17969 24.2227 10.3125 20.2384L14.2148 13.0079L15.2812 13.5821C15.8672 13.8985 16.3477 14.1915 16.3359 14.2384C16.3008 14.4845 4.83984 37.7345 4.72266 37.7813C4.55859 37.8517 1.875 36.4688 1.80469 36.2813C1.78125 36.211 2.41406 34.922 3.22266 33.422C4.03125 31.922 4.6875 30.5743 4.6875 30.4337C4.6875 29.754 3.65625 29.3673 3.19922 29.8829C3.08203 30.0001 2.33203 31.336 1.52344 32.836C0.152344 35.3907 0.0585938 35.6017 0.0585938 36.2227C0.0585938 37.3243 0.375 37.6759 2.30859 38.6485C3.19922 39.0938 4.08984 39.504 4.30078 39.5392C4.78125 39.6446 5.53125 39.4454 5.95312 39.0938C6.1875 38.8829 7.93359 35.4493 12.1289 26.8712L17.9883 14.9298L18.7148 14.754L19.4414 14.5782L24.3984 17.1329C27.5977 18.7852 29.4844 19.6876 29.707 19.6876C30.2227 19.6876 30.8086 19.2774 31.0195 18.7735C31.2422 18.2345 31.1367 17.6954 30.4922 16.2071C29.8594 14.7306 29.0742 13.5938 27.8438 12.3517C26.6484 11.1563 25.8633 10.6173 23.8828 9.59775C22.582 8.9415 22.5 8.87119 22.5 8.54306C22.5 8.1915 22.1367 7.33603 21.9258 7.20712C21.8555 7.17197 22.0312 6.67978 22.3242 6.0704C22.8984 4.91025 22.9805 4.28915 22.6875 3.59775C22.4648 3.08212 22.1016 2.77744 21.0469 2.22665C19.9922 1.67587 19.1836 1.59384 18.5625 1.98056ZM20.3906 3.86728C20.7773 4.0665 21.0938 4.30087 21.0938 4.39462C21.0938 4.629 20.3672 6.09384 20.25 6.09384C20.0273 6.09384 18.5156 5.26181 18.5156 5.14462C18.5156 4.88681 19.3594 3.51572 19.5234 3.51572C19.6172 3.51572 20.0039 3.67978 20.3906 3.86728ZM9.66797 4.55869C10.4883 4.78134 13.9453 6.33994 13.9453 6.49228C13.9453 6.70322 12.5977 9.02353 12.4922 9.00009C12.3633 8.96494 4.20703 4.8165 4.11328 4.72275C3.99609 4.629 4.25391 4.54697 5.0625 4.3829C6.24609 4.16025 8.44922 4.24228 9.66797 4.55869ZM18.6328 7.30087C20.2148 8.13291 20.6953 8.43759 20.7188 8.62509C20.7656 8.9415 18.6914 12.961 18.4453 13.0548C18.3281 13.1017 17.3789 12.6798 16.125 12.047C14.4609 11.1915 13.9922 10.8985 13.9688 10.6993C13.9336 10.4532 15.6797 6.80869 16.0312 6.41025C16.125 6.30478 16.2891 6.21103 16.3945 6.21103C16.5 6.21103 17.5078 6.70322 18.6328 7.30087ZM23.168 11.2149C25.3477 12.3634 26.4844 13.2423 27.5156 14.5782C28.0195 15.2345 29.2383 17.4376 29.1445 17.5313C29.1094 17.5782 20.8008 13.336 20.6602 13.2071C20.5898 13.1368 21.7734 10.547 21.8789 10.547C21.8906 10.547 22.4766 10.8517 23.168 11.2149Z" fill="#F90077"/>
<path d="M37.4766 16.5117C37.1133 16.8047 37.043 16.9688 36.0235 20.2031C35.1563 22.957 35.1329 23.2734 35.7423 23.8125C36.1758 24.2109 36.6212 24.3281 37.0548 24.1641C37.7344 23.9062 42.1993 21.1641 42.4805 20.8359C42.9376 20.2969 42.879 19.6758 42.293 18.7852C42.0352 18.3867 41.5782 17.8359 41.2735 17.5664C40.0665 16.4883 38.168 15.9609 37.4766 16.5117ZM39.6915 18.5742C40.2423 18.9023 40.9805 19.7695 40.8282 19.9102C40.7462 19.9805 37.8282 21.7383 37.336 22.0078C37.2774 22.043 37.254 22.0195 37.2891 21.9609C37.3243 21.9023 37.629 21 37.9571 19.957L38.5548 18.0586L38.8829 18.1758C39.0587 18.2461 39.4219 18.4219 39.6915 18.5742Z" fill="#F90077"/>
<path d="M32.9765 18.164C32.5663 18.3164 32.4726 18.5625 32.2851 19.8633C32.0507 21.539 32.0624 21.8672 32.3437 22.1484C32.6601 22.4648 33.2929 22.4531 33.5741 22.1484C33.832 21.8672 34.2421 19.0781 34.1015 18.6914C33.9374 18.2461 33.4218 18.0117 32.9765 18.164Z" fill="#F90077"/>
<path d="M43.4531 22.875C43.2773 22.957 41.7539 24.1523 40.0664 25.5352C37.957 27.2578 36.9492 28.0078 36.8555 27.9375C35.2969 26.7773 34.6172 26.3555 33.3398 25.7227C30.8555 24.4922 28.6992 24 25.8047 24C24.8672 24 23.9648 24.0703 23.7305 24.1406C23.0625 24.3633 22.8984 24.9258 23.3203 25.4648L23.5664 25.7695H25.5234C28.2891 25.7695 30.1055 26.1328 32.332 27.1406C33.2226 27.5508 35.5078 29.0039 35.5078 29.168C35.5078 29.2383 34.1016 30.4336 33.7969 30.6211C33.7266 30.668 33.1992 30.4219 32.625 30.0703C30.0469 28.5234 27.1992 27.8906 24.4219 28.2422C21.4336 28.6172 18.8906 29.8477 16.8164 31.9336C10.7578 38.0156 12.2695 48.1875 19.8398 52.2656C20.4141 52.582 20.7187 52.8047 20.6602 52.8867C20.4141 53.3203 19.2891 54.6094 19.1719 54.6094C18.9727 54.6094 17.5195 53.7305 16.6406 53.0859C15.6797 52.3711 14.1914 50.8359 13.4414 49.7812C12.1758 48.0117 11.2266 45.6797 10.8281 43.3594C10.5937 42.0234 10.6641 39.1992 10.9453 37.9102C12.0586 32.9297 15.4102 28.8281 19.9219 26.9531C20.8828 26.5547 21.2109 26.2617 21.2109 25.8164C21.2109 25.4531 20.7187 24.9609 20.3437 24.9609C19.957 24.9609 18.3633 25.6758 17.1562 26.3789C13.7695 28.3828 11.0391 31.7812 9.78515 35.543C9.09374 37.6172 8.96484 38.4727 8.96484 40.957C8.96484 43.4648 9.11718 44.4492 9.80859 46.4648C11.0508 50.0742 13.4414 53.1328 16.6289 55.2188C17.2969 55.6523 17.8945 56.0273 17.9531 56.0391C18.0117 56.0625 18.0234 56.168 17.9883 56.2852C17.9062 56.4727 17.3555 56.4844 9.41015 56.4844C2.1914 56.4844 0.878899 56.5078 0.597649 56.6602C0.058587 56.9297 -0.035163 57.4336 0.363274 57.9375L0.597649 58.2422H30.0586H59.5195L59.7539 57.9375C60.293 57.2578 59.8242 56.4961 58.8633 56.4844C58.5586 56.4727 58.4766 56.3555 57.5508 54.4102L56.5664 52.3359L56.4726 49.582L56.3906 46.8281L56.0742 46.5586C55.5937 46.1367 55.0664 46.2188 54.7969 46.7461C54.668 46.9922 54.6562 47.6133 54.7266 49.9219L54.8203 52.793L55.6992 54.6094L56.5664 56.4258L47.4375 56.4609C42.4101 56.4727 34.207 56.4727 29.2148 56.4609L20.1211 56.4258L22.9687 52.8516C24.5273 50.8828 25.8867 49.1719 25.9687 49.043C26.0508 48.9141 27.0469 45.9023 28.1836 42.3633C29.8594 37.125 30.3047 35.8594 30.5625 35.6016C30.7383 35.4258 33.8555 32.8594 37.5 29.8945C42.3633 25.9336 44.2031 24.4922 44.4141 24.5039C44.5781 24.5039 45.293 24.8672 45.9961 25.3008L47.2851 26.0977L47.3437 29.7188C47.4023 33.2227 47.4141 33.3633 47.6719 33.9023C47.9062 34.3594 48.4101 34.8281 50.7422 36.7383C52.2773 37.9922 53.6953 39.2109 53.8828 39.4453C54.3516 40.0078 54.4922 40.6289 54.4922 42.1055C54.4922 43.418 54.6211 44.0039 54.9609 44.1797C55.3125 44.3672 55.7226 44.3203 56.0039 44.0508C56.2734 43.8047 56.2734 43.7578 56.2148 41.9648C56.1914 40.957 56.0976 39.9375 56.0273 39.6914C55.6992 38.6719 54.9961 37.9219 52.1484 35.6133C50.6367 34.3828 49.3476 33.2812 49.2773 33.1758C49.207 33.0703 49.1367 31.4414 49.1016 29.2734L49.043 25.5703L48.6797 25.1133C48.4687 24.8438 47.707 24.293 46.8047 23.7422C45.375 22.8633 45.2461 22.8047 44.5312 22.7695C44.0859 22.7461 43.6406 22.793 43.4531 22.875ZM27.3867 30.0117C28.8984 30.2109 31.0312 31.0195 31.957 31.7344L32.2266 31.9336L31.207 32.7539C30.6445 33.2109 29.9531 33.7734 29.6836 34.0195L29.1914 34.4766L28.5469 34.0781C27.9023 33.6914 27.9023 33.6797 27.8906 33.1289C27.8906 32.1562 27.1289 31.6875 26.4375 32.2383C26.2031 32.4258 26.1328 32.5781 26.1328 32.9414V33.3984H25.1953H24.2578V32.9883C24.2578 32.4844 23.8242 31.9922 23.3789 31.9922C22.9336 31.9922 22.5 32.4844 22.5 32.9648V33.3633L21.6797 33.4219C20.6953 33.4922 20.3906 33.7031 20.3906 34.3125C20.3906 34.875 20.6719 35.1562 21.2344 35.1562H21.6797V40.957V46.7578H21.2695C20.7422 46.7578 20.3906 47.0977 20.3906 47.6133C20.3906 48.3398 20.6602 48.4453 22.5 48.5156L24.1172 48.5742L23.2734 49.6406C22.8164 50.2148 22.3242 50.8477 22.1836 51.0234L21.9258 51.3516L20.9531 50.8594C19.2305 50.0039 17.7891 48.75 16.7344 47.1914C14.6602 44.1328 14.2617 40.1016 15.7031 36.6328C16.6406 34.3945 18.6914 32.2031 20.8594 31.1133C22.0781 30.5039 23.0859 30.1992 24.7266 29.9531C25.3476 29.8711 26.5078 29.8828 27.3867 30.0117ZM27.5742 35.543C27.8906 35.7305 28.1484 35.9766 28.1836 36.1289C28.2187 36.2695 28.0312 37.043 27.75 37.9102C27.1523 39.7148 27.2812 39.6328 24.9844 39.5859L23.4961 39.5508L23.4609 37.5C23.4492 36.375 23.4609 35.3789 23.4961 35.2969C23.543 35.1562 23.8711 35.1328 25.2891 35.1797C26.9297 35.2266 27.0586 35.25 27.5742 35.543ZM26.6016 41.4492C26.6016 41.4961 26.2266 42.7148 25.7578 44.1562L24.9141 46.7695L24.2109 46.7344L23.4961 46.6992L23.4609 44.0273L23.4375 41.3672H25.0195C25.8867 41.3672 26.6016 41.4023 26.6016 41.4492Z" fill="#F90077"/>
<path d="M38.6016 34.3593C37.793 35.1562 37.7109 35.496 38.1797 35.9765C38.6953 36.4921 38.9531 36.4335 39.75 35.6483C40.5234 34.8632 40.6172 34.5116 40.1367 34.0429C39.6914 33.5858 39.3281 33.6679 38.6016 34.3593Z" fill="#F90077"/>
<path d="M33.6562 39.3984C32.8008 40.2538 31.9922 41.1562 31.8633 41.3905C31.6641 41.789 31.6406 42.1054 31.6406 44.8241C31.6406 47.6601 31.6523 47.8241 31.875 48.0468C32.1914 48.3632 32.8242 48.3515 33.1172 48.0351C33.3164 47.8124 33.3398 47.5429 33.375 44.953L33.4102 42.1171L34.9219 40.6054C36.2227 39.3163 36.4453 39.0351 36.4453 38.7187C36.4453 38.2734 36.0234 37.8515 35.5664 37.8515C35.2969 37.8515 34.9453 38.1444 33.6562 39.3984Z" fill="#F90077"/>
<path d="M47.9883 40.7812C47.6133 40.9218 47.4258 41.2265 47.4375 41.625C47.4492 41.9062 47.6016 42.1523 48.1524 42.7031L48.8672 43.4296V46.371C48.8672 49.6054 48.8907 49.6992 49.5938 49.875C49.8516 49.9335 49.9805 49.875 50.2735 49.5937L50.625 49.2421V45.9843V42.7382L49.6641 41.7656C48.668 40.7695 48.3985 40.6171 47.9883 40.7812Z" fill="#F90077"/>
</svg>
