<svg width="60" height="60" viewBox="0 0 60 60" fill="none" xmlns="http://www.w3.org/2000/svg">
<g clip-path="url(#clip0_665_535)">
<path d="M48.7969 0.117188C46.6992 0.503906 44.9531 1.41797 43.4766 2.91797C42.1406 4.27734 41.3555 5.67188 40.8867 7.5C40.6406 8.44922 40.6758 11.0977 40.9453 12.0703C41.1562 12.8672 41.8711 14.4375 42.3047 15.082L42.5625 15.4688H41.6133H40.6641V17.1914C40.6758 18.293 40.7344 19.0781 40.8281 19.3477C41.0625 20.0039 41.543 20.5547 42.2109 20.9297L42.832 21.2695L46.0898 21.3047L49.3359 21.3516V22.1484C49.3359 23.5781 51.3633 22.957 30.3633 27.9492C20.2148 30.3633 11.7656 32.3438 11.5781 32.3438C11.0977 32.3438 10.6641 31.875 10.6641 31.3477V30.9375H13.7812C15.8203 30.9375 17.0625 30.8906 17.3555 30.7969C18 30.6094 18.7383 29.9414 19.0547 29.25C19.3125 28.7109 19.3359 28.4883 19.3359 26.918V25.1953H18.3984C17.8828 25.1953 17.4609 25.1719 17.4609 25.1484C17.4609 25.125 17.6953 24.7148 17.9883 24.2461C19.6289 21.5742 19.7695 17.9883 18.3281 15.082C16.6875 11.7539 13.3945 9.72656 9.64453 9.72656C7.71094 9.72656 5.89453 10.2773 4.32422 11.3203C3.39844 11.9297 1.98047 13.4062 1.42969 14.332C-0.292969 17.2031 -0.445312 20.6836 1.00781 23.5898C1.24219 24.0586 1.53516 24.5742 1.65234 24.75C1.78125 24.9141 1.875 25.0898 1.875 25.125C1.875 25.1602 1.45312 25.1953 0.925781 25.1953H-0.0234375L0.0234375 27.0352C0.0585938 28.6523 0.09375 28.9453 0.316406 29.3555C0.644531 29.9648 1.10156 30.3984 1.75781 30.6914C2.25 30.9141 2.51953 30.9375 5.46094 30.9375H8.63672L8.71875 31.5469C8.87109 32.707 9.41016 33.5039 10.3711 34.0195C11.2383 34.4766 11.7188 34.3945 20.0039 32.4141C24.2109 31.4062 27.7148 30.5859 27.7969 30.5859C27.9141 30.5859 27.3281 34.3125 25.5234 45.082C24.1875 53.0625 23.0977 59.6836 23.0977 59.7891C23.0859 59.9883 23.4961 60 30 60C34.582 60 36.9141 59.9648 36.9141 59.8828C36.9141 59.8125 35.8242 53.2383 34.5 45.2578C32.625 33.9844 32.0391 30.6445 31.8281 30.2109L31.5703 29.6602L32.2734 29.4844C32.6719 29.3906 36.6797 28.4297 41.1914 27.3633C47.0391 25.9688 49.5352 25.3359 49.8867 25.125C50.8242 24.5859 51.2109 23.8359 51.293 22.3594L51.3633 21.3398L54.5391 21.3047C57.4688 21.2695 57.75 21.2461 58.2422 21.0234C58.8633 20.7422 59.4375 20.1797 59.7305 19.582C59.9062 19.2422 59.9531 18.7969 59.9766 17.3203L60.0117 15.4805L59.0859 15.4453L58.1484 15.4102L58.6641 14.543C59.625 12.9023 60.082 10.957 59.9648 9.08203C59.6836 4.92188 56.8945 1.48828 52.8516 0.351562C51.8438 0.0703125 49.7461 -0.046875 48.7969 0.117188ZM52.8281 2.37891C54.0234 2.80078 54.8555 3.32812 55.7695 4.23047C56.6836 5.14453 57.3281 6.1875 57.6914 7.32422C58.0664 8.49609 58.0664 10.8281 57.6914 12.0117C57.3984 12.9492 56.7656 14.0391 56.0391 14.8828L55.5352 15.4688H50.332H45.1406L44.5312 14.7891C43.8281 14.0039 42.9727 12.3281 42.7617 11.3086C41.9297 7.30078 44.3789 3.28125 48.3047 2.22656C49.5586 1.88672 51.6445 1.95703 52.8281 2.37891ZM11.8945 11.9531C13.5469 12.4688 15.1055 13.6055 16.0547 15C18.0938 18 17.7773 22.1016 15.3047 24.6094L14.7305 25.1953H9.66797H4.60547L4.03125 24.5742C3.29297 23.8125 2.67188 22.7812 2.33203 21.7969C1.98047 20.7539 1.88672 18.6445 2.15625 17.5781C2.89453 14.6016 5.25 12.375 8.33203 11.7188C9.15234 11.543 10.9688 11.6719 11.8945 11.9531ZM58.0078 18.1523C58.0078 18.7617 57.9727 18.8789 57.7031 19.0898C57.3984 19.3359 57.293 19.3359 50.3203 19.3359H43.2539L42.9375 19.0664C42.6797 18.8438 42.6094 18.668 42.5625 18.1289L42.5156 17.4609H50.2617H58.0078V18.1523ZM17.4609 27.5273C17.4609 27.7734 17.4023 28.1367 17.332 28.3477C17.0742 29.0742 17.2266 29.0625 9.75 29.0625C5.09766 29.0625 2.84766 29.0273 2.58984 28.9336C2.10938 28.7695 1.99219 28.5234 1.99219 27.7266V27.0703H9.72656H17.4609V27.5273ZM32.4141 44.5664L34.6523 58.0078H30H25.3477L27.5625 44.6719C28.7812 37.3477 29.8008 31.2773 29.8359 31.1953C30.0352 30.5625 30.3047 31.957 32.4141 44.5664Z" fill="#F90077"/>
<path d="M46.4297 8.69531L46.4648 13.5352H49.2187C51.8789 13.5352 51.9961 13.5234 52.5 13.2656C53.2383 12.8789 53.6133 12.4922 53.9062 11.8008C54.2578 10.9805 54.1992 9.83203 53.7773 9.1875L53.4844 8.73047L53.8125 8.09766C54.5742 6.64453 54.0469 4.98047 52.5586 4.18359C52.125 3.9375 51.9023 3.92578 49.2422 3.89062L46.4062 3.85547L46.4297 8.69531ZM51.8789 6.03516C52.3945 6.39844 52.3125 7.33594 51.7266 7.60547C51.5625 7.67578 50.7891 7.73438 49.9219 7.73438H48.3984V6.79688V5.85938H50.0156C51.2461 5.85938 51.6914 5.89453 51.8789 6.03516ZM51.8789 9.90234C52.3594 10.2422 52.3242 11.0508 51.8086 11.4492C51.6797 11.543 51.0937 11.5898 50.0156 11.6016H48.3984V10.6641V9.72656H50.0156C51.2578 9.72656 51.6797 9.76172 51.8789 9.90234Z" fill="#F90077"/>
<path d="M8.51953 13.7577C7.60547 14.0975 6.80859 14.9178 6.50391 15.8319C6.32812 16.3827 4.92188 22.6288 4.92188 22.8866C4.92188 22.9921 5.25 23.121 5.82422 23.2382C6.31641 23.3436 6.72656 23.4257 6.75 23.4022C6.76172 23.3905 6.92578 22.6874 7.10156 21.8553L7.44141 20.3319L9.64453 20.2968C12.2109 20.2616 11.8711 20.0389 12.3164 22.1249C12.5742 23.3319 12.6094 23.4491 12.832 23.3905C12.9609 23.3553 13.3711 23.2616 13.7461 23.1913C14.2383 23.0858 14.4141 23.0038 14.4141 22.8632C14.4141 22.453 12.8789 15.7733 12.7031 15.4218C12.4336 14.8944 11.7305 14.203 11.1914 13.91C10.5938 13.6053 9.16406 13.5233 8.51953 13.7577ZM10.2539 15.6327C10.7578 15.8436 10.9922 16.2186 11.2031 17.1327C11.2969 17.5428 11.3906 17.9882 11.4258 18.1288L11.4844 18.3983H9.67969H7.875L8.10938 17.3671C8.36719 16.1835 8.54297 15.8671 9.05859 15.6444C9.53906 15.4335 9.76172 15.4335 10.2539 15.6327Z" fill="#F90077"/>
</g>
<defs>
<clipPath id="clip0_665_535">
<rect width="60" height="60" fill="white"/>
</clipPath>
</defs>
</svg>
