<svg width="40" height="40" viewBox="0 0 40 40" fill="none" xmlns="http://www.w3.org/2000/svg">
<path d="M18.5156 0.0467682C18.3672 0.0623932 17.9062 0.117081 17.5 0.163956C11.3203 0.867081 5.60938 4.74208 2.46875 10.3593C1.32812 12.4061 0.5 14.953 0.148438 17.4999C0.0078125 18.4765 0.0078125 21.5233 0.148438 22.4999C0.96875 28.453 4.14062 33.5077 9.10156 36.7655C13.8594 39.8905 19.8594 40.8046 25.4297 39.2421C32.6875 37.2108 38.2891 31.0936 39.6406 23.7186C40.8594 17.1171 38.8359 10.578 34.1328 5.86708C31.0156 2.75771 27.2656 0.874893 22.8125 0.195206C22.0312 0.0780182 19.125 -0.0235443 18.5156 0.0467682ZM21.6016 2.42177C25.4922 2.78114 29.2344 4.47646 32.1328 7.18739C34.5 9.40614 36.3672 12.6171 37.1328 15.789C37.5156 17.3593 37.6094 18.203 37.6094 19.9999C37.6094 21.7968 37.5156 22.6405 37.1328 24.2108C36.5234 26.7499 35.2109 29.3124 33.4531 31.4061C31.1406 34.1718 27.7344 36.2811 24.2109 37.1327C22.6406 37.5155 21.7969 37.6093 20 37.6093C18.1953 37.6093 17.3594 37.5155 15.7812 37.1327C12.6875 36.3827 9.45312 34.5233 7.28906 32.2421C3.72656 28.4921 1.96094 23.453 2.42188 18.3983C2.84375 13.8436 5.11719 9.46864 8.59375 6.53896C12.2188 3.49208 16.9453 1.99208 21.6016 2.42177Z" fill="#F90077"/>
<path d="M18.9297 7.99996C16.7188 8.53902 15.2735 10.8671 15.8204 13.0078C16.0938 14.0859 16.7891 15.0546 17.6641 15.6015L18.1329 15.8906L17.2969 16.1796C14.6563 17.1093 12.75 19.2109 12.0235 22C11.7735 22.9531 11.7657 24.8828 12.0157 25.7812C12.4454 27.3671 13.1563 28.6406 14.211 29.6953C15.2657 30.75 16.5391 31.4609 18.125 31.8906C19.0235 32.1406 20.9532 32.1328 21.9063 31.8828C25.4766 30.9531 27.9688 27.9687 28.1797 24.375C28.3125 22.0312 27.4297 19.7578 25.7422 18.0781C25.0625 17.4062 24.7422 17.1875 21.4141 15.1484C19.9766 14.2734 18.7032 13.4531 18.5782 13.3281C18.2032 12.9531 18.0938 12.6718 18.086 12.0625C18.086 11.5859 18.1172 11.4609 18.3204 11.125C18.4688 10.8906 18.7032 10.6562 18.9375 10.5078L19.3204 10.2734L21.7266 10.25C24.0235 10.2265 24.1407 10.2343 24.4454 10.3906C24.8047 10.5703 25.0782 11.0156 25.0782 11.4062C25.0782 12 25.6563 12.5781 26.25 12.5781C26.8594 12.5781 27.4219 12 27.4219 11.375C27.4219 9.79683 26.2032 8.32027 24.625 7.97652C24.0313 7.85152 19.4688 7.87496 18.9297 7.99996ZM21.1485 18.1718C22.3204 18.414 23.2969 18.9453 24.1329 19.789C24.8985 20.5703 25.3985 21.4218 25.6797 22.4531C25.8594 23.1093 25.8594 24.7031 25.6797 25.3593C25.0782 27.5468 23.336 29.1875 21.1563 29.6406C17.1016 30.4765 13.4297 26.8125 14.2657 22.75C14.9141 19.5937 18.0235 17.5234 21.1485 18.1718Z" fill="#F90077"/>
</svg>
