<svg width="14" height="14" viewBox="0 0 14 14" fill="none" xmlns="http://www.w3.org/2000/svg">
<path d="M5.87767 6.41675C6.22767 6.41675 6.51117 6.67925 6.50475 7.00008C6.50475 7.32091 6.22825 7.58341 5.87767 7.58341C5.5335 7.58341 5.25 7.32091 5.25 7.00008C5.25 6.67925 5.52708 6.41675 5.87767 6.41675ZM8.12233 6.41675C8.47292 6.41675 8.75 6.67925 8.75 7.00008C8.75 7.32091 8.47292 7.58341 8.12233 7.58341C7.77817 7.58341 7.49525 7.32091 7.49525 7.00008C7.49525 6.67925 7.77175 6.41675 8.12233 6.41675ZM11.0198 1.16675C11.6982 1.16675 12.25 1.73025 12.25 2.4285V13.4167L10.9602 12.253L10.234 11.567L9.46575 10.8378L9.78425 11.9712H2.98025C2.30183 11.9712 1.75 11.4077 1.75 10.7095V2.4285C1.75 1.73025 2.30183 1.16675 2.98025 1.16675H11.0192H11.0198ZM8.70392 9.166C10.0298 9.12341 10.5402 8.235 10.5402 8.235C10.5402 6.26275 9.67575 4.66383 9.67575 4.66383C8.81242 4.00291 7.98992 4.021 7.98992 4.021L7.90592 4.119C8.92617 4.4375 9.39983 4.89716 9.39983 4.89716C8.84279 4.58332 8.22887 4.38344 7.59383 4.30916C7.19101 4.26367 6.78413 4.26758 6.38225 4.32083C6.34608 4.32083 6.31575 4.32725 6.28017 4.33308C6.07017 4.35175 5.55975 4.43108 4.91808 4.71925C4.69642 4.82308 4.564 4.89716 4.564 4.89716C4.564 4.89716 5.06217 4.413 6.14192 4.0945L6.08183 4.021C6.08183 4.021 5.25992 4.00291 4.396 4.66441C4.396 4.66441 3.53208 6.26275 3.53208 8.235C3.53208 8.235 4.03608 9.12283 5.362 9.166C5.362 9.166 5.58367 8.89066 5.7645 8.65791C5.00208 8.42458 4.7145 7.93458 4.7145 7.93458C4.7145 7.93458 4.774 7.97775 4.88192 8.039C4.88775 8.04483 4.89358 8.05125 4.90583 8.05708C4.92392 8.06991 4.942 8.07575 4.96008 8.088C5.11 8.17375 5.25992 8.24083 5.39758 8.29625C5.64375 8.39425 5.93775 8.49225 6.28017 8.55991C6.7931 8.66046 7.32049 8.66244 7.83417 8.56575C8.13337 8.51235 8.42528 8.42405 8.70392 8.30266C8.91392 8.22275 9.14783 8.10608 9.394 7.941C9.394 7.941 9.09417 8.44325 8.30783 8.67016C8.48808 8.90291 8.7045 9.166 8.7045 9.166H8.70392Z" fill="#B8B8B8"/>
</svg>
