<svg width="20" height="20" viewBox="0 0 20 20" fill="none" xmlns="http://www.w3.org/2000/svg">
<path d="M8.39667 9.16675C8.89667 9.16675 9.30167 9.54175 9.2925 10.0001C9.2925 10.4584 8.8975 10.8334 8.39667 10.8334C7.905 10.8334 7.5 10.4584 7.5 10.0001C7.5 9.54175 7.89583 9.16675 8.39667 9.16675ZM11.6033 9.16675C12.1042 9.16675 12.5 9.54175 12.5 10.0001C12.5 10.4584 12.1042 10.8334 11.6033 10.8334C11.1117 10.8334 10.7075 10.4584 10.7075 10.0001C10.7075 9.54175 11.1025 9.16675 11.6033 9.16675ZM15.7425 1.66675C16.7117 1.66675 17.5 2.47175 17.5 3.46925V19.1667L15.6575 17.5042L14.62 16.5242L13.5225 15.4826L13.9775 17.1017H4.2575C3.28833 17.1017 2.5 16.2967 2.5 15.2992V3.46925C2.5 2.47175 3.28833 1.66675 4.2575 1.66675H15.7417H15.7425ZM12.4342 13.0942C14.3283 13.0334 15.0575 11.7642 15.0575 11.7642C15.0575 8.94675 13.8225 6.66258 13.8225 6.66258C12.5892 5.71841 11.4142 5.74425 11.4142 5.74425L11.2942 5.88425C12.7517 6.33925 13.4283 6.99591 13.4283 6.99591C12.6326 6.54757 11.7555 6.26203 10.8483 6.15591C10.2729 6.09092 9.69161 6.09651 9.1175 6.17258C9.06583 6.17258 9.0225 6.18175 8.97167 6.19008C8.67167 6.21675 7.9425 6.33008 7.02583 6.74175C6.70917 6.89008 6.52 6.99591 6.52 6.99591C6.52 6.99591 7.23167 6.30425 8.77417 5.84925L8.68833 5.74425C8.68833 5.74425 7.51417 5.71841 6.28 6.66341C6.28 6.66341 5.04583 8.94675 5.04583 11.7642C5.04583 11.7642 5.76583 13.0326 7.66 13.0942C7.66 13.0942 7.97667 12.7009 8.235 12.3684C7.14583 12.0351 6.735 11.3351 6.735 11.3351C6.735 11.3351 6.82 11.3967 6.97417 11.4842C6.9825 11.4926 6.99083 11.5017 7.00833 11.5101C7.03417 11.5284 7.06 11.5367 7.08583 11.5542C7.3 11.6767 7.51417 11.7726 7.71083 11.8517C8.0625 11.9917 8.4825 12.1317 8.97167 12.2284C9.70443 12.372 10.4578 12.3749 11.1917 12.2367C11.6191 12.1605 12.0361 12.0343 12.4342 11.8609C12.7342 11.7467 13.0683 11.5801 13.42 11.3442C13.42 11.3442 12.9917 12.0617 11.8683 12.3859C12.1258 12.7184 12.435 13.0942 12.435 13.0942H12.4342Z" fill="white"/>
</svg>
