<svg width="40" height="40" viewBox="0 0 40 40" fill="none" xmlns="http://www.w3.org/2000/svg">
<path d="M18.5155 0.0546722C15.4296 0.343735 13.1639 0.976547 10.7264 2.21873C8.8202 3.18748 7.39051 4.26561 5.6952 5.99217C4.49207 7.21873 3.99988 7.8203 3.21863 8.99998C-0.593866 14.789 -1.04699 22.5859 2.06238 28.9453C2.67176 30.1797 3.56238 31.5781 4.39832 32.6172C5.01551 33.3828 6.76551 35.1015 7.61707 35.7812C10.3124 37.9219 13.5233 39.2734 17.2264 39.8125C18.5389 40.0078 21.4764 40.0078 22.7733 39.8203C26.5702 39.2578 29.8202 37.8594 32.6171 35.6015C33.3671 35 35.1874 33.1484 35.7889 32.3828C36.5077 31.4844 37.1718 30.4453 37.7343 29.3515C41.3827 22.3359 40.5389 13.4687 35.6639 7.46092C34.8905 6.5078 32.9374 4.60936 32.0311 3.93748C29.0624 1.71873 25.5546 0.398422 21.7733 0.0859222C20.8514 0.00779724 19.1639 -0.00782776 18.5155 0.0546722ZM21.4843 2.37498C24.1796 2.51561 27.2499 3.5703 29.6874 5.1953C30.4374 5.6953 31.5077 6.52342 31.5468 6.62498C31.5624 6.68748 26.9843 11.6406 26.9061 11.6406C26.8905 11.6406 26.7186 11.5 26.5389 11.3203C26.0858 10.8906 25.3827 10.5547 24.7889 10.5L24.2968 10.4453V9.2578C24.2968 7.39061 23.953 6.37498 23.0077 5.42967C21.4061 3.82811 18.6171 3.82811 16.9999 5.42967C16.0468 6.36717 15.703 7.3828 15.703 9.2578V10.4453L15.2968 10.4922C14.0233 10.625 12.9999 11.4453 12.6171 12.6406C12.4139 13.2578 12.4764 14.3437 12.7499 14.9453C13.1952 15.8984 14.0858 16.5547 15.203 16.7344L15.703 16.8203V19.8828V22.9531L11.4296 27.5312L7.14832 32.1015L6.92957 31.8906C6.17957 31.1797 4.90613 29.3359 4.21863 27.9687C3.39051 26.3125 2.89051 24.8047 2.5702 23.0078C2.35926 21.8281 2.28113 19.2422 2.41395 18.039C2.87488 14.0078 4.57801 10.4219 7.3827 7.61717C10.5077 4.49217 14.8124 2.5703 19.1796 2.35155C19.7811 2.3203 20.3593 2.30467 20.4686 2.31248C20.578 2.32811 21.0311 2.35155 21.4843 2.37498ZM20.8983 6.78123C21.2577 6.96092 21.5624 7.27342 21.7655 7.65623C21.8905 7.8828 21.9139 8.14842 21.9374 9.1953L21.9686 10.4687H19.9999H18.0311L18.0624 9.1953C18.0858 8.16405 18.1171 7.8828 18.2343 7.65623C18.4999 7.14842 18.8983 6.81248 19.453 6.6328C19.7733 6.52342 20.5624 6.60936 20.8983 6.78123ZM33.8671 8.99998C35.4139 10.9219 36.5233 13.1797 37.1171 15.5859C37.5155 17.2265 37.6171 18.0703 37.6171 19.9609C37.6171 22.3281 37.3593 23.875 36.6405 25.9765C35.328 29.7656 32.6561 33.039 29.1327 35.1719C26.3436 36.8594 22.7577 37.7578 19.3358 37.6328C15.9374 37.5 12.8749 36.539 10.2655 34.7734C9.02332 33.9297 8.84363 33.7812 8.9452 33.6406C8.99207 33.5781 10.5155 31.9297 12.3436 29.9765L15.6639 26.4297L15.7186 27.4531C15.7889 28.9765 16.0468 29.9609 16.6327 31.0625C16.9218 31.5859 16.9374 31.664 16.9686 32.4687C17.0155 33.5 17.1952 34.039 17.6952 34.5937C18.8046 35.8281 20.7811 35.9375 21.9921 34.8359C22.703 34.1797 23.0389 33.2578 23.0468 31.9609C23.0468 31.6094 23.0858 31.4844 23.3124 31.1797C23.6561 30.7031 23.9374 30.1328 24.1093 29.5625C24.2343 29.1406 24.2499 28.5859 24.2733 23.4765L24.3046 17.8515L24.9452 17.2031C25.2968 16.8515 25.7655 16.4609 25.9764 16.3359C26.4686 16.0547 26.9921 15.5 27.2186 14.9922C27.3514 14.7109 28.1952 13.75 30.3046 11.4844C31.9061 9.76561 33.2421 8.35936 33.2811 8.35936C33.3202 8.35936 33.578 8.64842 33.8671 8.99998ZM24.8671 12.9687C25.3514 13.3515 25.2733 14.1094 24.7343 14.3359C24.4999 14.4375 23.7343 14.4531 19.9843 14.4531C15.8827 14.4531 15.4843 14.4453 15.2343 14.3125C14.8671 14.1328 14.7186 13.7109 14.8749 13.3281C15.1014 12.789 14.8436 12.8125 20.0077 12.8125C24.5624 12.8125 24.6718 12.8125 24.8671 12.9687ZM21.9374 22.8281C21.9139 29.6094 21.9608 29.0156 21.2968 29.9531C20.7264 30.75 20.6874 30.8828 20.6483 31.8359C20.6093 32.9453 20.5858 33.0234 20.3124 33.164C19.9921 33.3281 19.8124 33.3125 19.5546 33.0937C19.3436 32.9062 19.3358 32.8828 19.2968 31.9375C19.2655 31.0703 19.2343 30.9297 19.0468 30.5859C18.2811 29.2031 18.1249 28.664 18.0702 27.2422L18.0233 26.1719H18.4452C19.1874 26.1719 19.6874 25.6953 19.6874 24.9922C19.6874 24.3125 19.1561 23.8281 18.4218 23.8281H18.0468V22.7031V21.5859L18.4843 21.5312C18.7264 21.5078 19.0155 21.4297 19.1405 21.3672C19.8671 20.9922 19.8671 19.7109 19.1405 19.3359C19.0155 19.2734 18.7264 19.1953 18.4843 19.1719L18.0468 19.1172V17.9609V16.7969H19.9999H21.9608L21.9374 22.8281Z" fill="#F90077"/>
<path d="M8.28113 14.5079C7.90613 14.6485 7.65613 15.0001 6.48426 17.0391C5.78113 18.2423 5.1327 19.4298 5.03113 19.672C4.32801 21.3985 5.26551 23.5704 7.07019 24.4298C7.60144 24.6798 7.75769 24.7188 8.44519 24.7501C9.76551 24.8126 10.6639 24.4454 11.5389 23.4923C12.4999 22.4298 12.828 20.9454 12.3671 19.7266C12.1952 19.2891 9.76551 15.1407 9.49988 14.8516C9.21082 14.5313 8.64832 14.3673 8.28113 14.5079ZM9.42176 19.2345C10.2108 20.5704 10.3202 20.8751 10.1561 21.3595C9.74207 22.6251 7.99988 22.797 7.35144 21.6329C7.23426 21.4298 7.16394 21.1798 7.16394 20.9376C7.15613 20.6016 7.23426 20.422 7.89832 19.2657C8.30457 18.5548 8.64051 17.9688 8.64832 17.9688C8.65613 17.9688 9.0077 18.5391 9.42176 19.2345Z" fill="#F90077"/>
<path d="M29.289 18.6171C29.0937 18.7499 28.7421 19.2733 27.9062 20.703C27.2968 21.7577 26.7421 22.8046 26.6718 23.0389C26.4687 23.7108 26.5468 24.6718 26.8515 25.328C27.1171 25.8983 27.5859 26.453 28.0937 26.7968C28.9843 27.4139 30.3437 27.5233 31.3437 27.0546C32.8593 26.3436 33.6953 24.5936 33.2421 23.078C33.1796 22.8671 32.6093 21.8202 31.9765 20.7421C31.1171 19.3046 30.75 18.7499 30.5546 18.6171C30.1953 18.3749 29.6484 18.3749 29.289 18.6171ZM30.4921 22.8514C31.0546 23.8046 31.1015 24.0155 30.875 24.4452C30.4921 25.1639 29.3906 25.1639 29.0234 24.4608C28.8046 24.0311 28.8671 23.7343 29.3984 22.8124C29.664 22.3436 29.8984 21.9608 29.9218 21.953C29.9453 21.953 30.2031 22.3593 30.4921 22.8514Z" fill="#F90077"/>
</svg>
