<svg width="60" height="60" viewBox="0 0 60 60" fill="none" xmlns="http://www.w3.org/2000/svg">
<path d="M50.4258 9.07037C50.0977 9.35162 50.0977 9.38677 50.0391 10.9219L49.9805 12.4805L49.3008 12.5626C48.9258 12.6094 48.2812 12.8086 47.8711 13.0079C44.6953 14.5196 44.0273 18.668 46.582 21.0821C47.7773 22.2071 48.7266 22.5001 51.2461 22.5001C52.1602 22.5001 53.1094 22.5586 53.3438 22.6172C54.3398 22.8985 54.9492 23.8126 54.9609 25.0313C54.9609 25.9922 54.6094 26.6602 53.8477 27.129L53.2852 27.4805L49.6406 27.5157C47.6367 27.5274 45.8789 27.5743 45.7266 27.5977C45.3984 27.6797 45 28.3008 45 28.7344C45 28.9102 45.0586 29.1915 45.1406 29.3555C45.3984 29.918 45.7383 30.0001 47.9883 30.0001H50.0391V31.4766C50.0391 32.2852 50.0977 33.0469 50.1562 33.1758C50.4258 33.668 51.2578 33.879 51.8555 33.6094C52.3828 33.3751 52.5 32.9649 52.5 31.4415V30.0469L53.2734 29.918C55.9805 29.4493 57.8906 26.8477 57.4219 24.2461C57.1055 22.4297 55.8867 20.9415 54.2109 20.3086C53.8711 20.168 53.0859 20.0977 51.5039 20.0391C49.207 19.9688 48.8555 19.8868 48.2344 19.3477C47.3086 18.5391 47.2852 16.6055 48.1875 15.7501C48.9141 15.0586 48.8555 15.0586 52.9805 15.0001C57.2695 14.9297 57.1641 14.9532 57.4336 14.0626C57.5977 13.5235 57.3398 12.879 56.8828 12.668C56.6953 12.586 55.8281 12.5391 54.5508 12.5391H52.5V11.1329C52.5 9.19927 52.2773 8.78912 51.2227 8.78912C50.8945 8.78912 50.6602 8.87115 50.4258 9.07037Z" fill="#F90077"/>
<path d="M8.95312 17.6367C7.99219 17.8477 7.34766 18.1875 6.59766 18.8906C5.54297 19.8984 5.03906 21.0586 5.03906 22.5C5.03906 23.9531 5.54297 25.1016 6.62109 26.1211C8.58984 27.9844 11.5781 27.9375 13.4883 26.0273C15.4805 24.0234 15.4805 20.9766 13.4883 18.9727C12.75 18.2344 11.8711 17.7773 10.8516 17.5898C10.0078 17.4375 9.86719 17.4375 8.95312 17.6367ZM11.2617 20.3086C11.6016 20.4844 11.8945 20.7773 12.1289 21.1406C12.4219 21.6211 12.4688 21.8203 12.4688 22.5C12.4688 23.1797 12.4219 23.3789 12.1289 23.8594C11.6602 24.6094 10.9922 24.9609 10.0312 24.9609C8.48438 24.9492 7.5 24 7.5 22.5C7.5 21 8.48438 20.0508 10.0312 20.0391C10.5586 20.0391 10.8867 20.1094 11.2617 20.3086Z" fill="#F90077"/>
<path d="M4.79297 30.1758C2.98828 30.6211 1.40625 31.875 0.644531 33.4804C0.152344 34.5 0 35.414 0 37.3008C0 39.5859 0.175781 39.9609 1.27734 39.9609C1.60547 39.9609 1.83984 39.8789 2.07422 39.6797L2.40234 39.3984L2.46094 37.4179C2.51953 35.6133 2.55469 35.3906 2.83594 34.7812C3.21094 33.9609 3.96094 33.2226 4.80469 32.8242L5.44922 32.5195H9.90234C13.9102 32.5195 14.4141 32.5429 14.9648 32.7304C15.8086 33.0234 16.7109 33.8672 17.1211 34.7461C17.4492 35.4258 17.4609 35.5195 17.4609 37.1836C17.4609 39.1054 17.5781 39.5859 18.1172 39.832C18.8203 40.1484 19.5703 39.914 19.875 39.2812C20.168 38.6718 20.0508 35.4258 19.6992 34.3242C19.043 32.2617 17.2383 30.6093 15.1289 30.164C14.0391 29.9414 5.75391 29.9414 4.79297 30.1758Z" fill="#F90077"/>
<path d="M29.5312 40.0195C13.8984 42.75 0.984375 45.0234 0.820312 45.082C0.433594 45.2109 0 45.8789 0 46.3477C0 46.6055 0.105469 46.8281 0.316406 47.0391C0.902344 47.625 -1.07812 47.9062 20.5078 44.168C25.3125 43.3359 29.2617 42.6562 29.2852 42.6562C29.3203 42.6562 29.2266 42.7734 29.0977 42.9141C28.9688 43.0664 27.457 45.4336 25.7461 48.1875C23.4961 51.7852 22.6172 53.2969 22.6172 53.543C22.6172 54 22.7812 54.4219 23.0859 54.7266C23.3203 54.9609 23.4375 54.9609 30 54.9609H36.6914L36.9727 54.6562C37.3125 54.2812 37.4648 53.625 37.3008 53.1914C37.1133 52.6992 30.9492 42.8555 30.6797 42.6211C30.5508 42.5156 30.4805 42.4219 30.5273 42.4219C30.8906 42.4219 59.1445 37.4648 59.3203 37.3711C59.6367 37.1953 60 36.5625 60 36.1641C60 35.9414 59.8711 35.707 59.6016 35.4375C59.2383 35.0742 59.1445 35.0391 58.582 35.0508C58.2305 35.0625 45.1641 37.3008 29.5312 40.0195ZM32.0156 49.2539L33.9727 52.4414L31.9805 52.4766C30.8906 52.4883 29.1094 52.4883 28.0195 52.4766L26.0273 52.4414L27.9844 49.2539C29.0625 47.4961 29.9648 46.0664 30 46.0664C30.0352 46.0664 30.9375 47.4961 32.0156 49.2539Z" fill="#F90077"/>
</svg>
