<svg width="261" height="73" viewBox="0 0 261 73" fill="none" xmlns="http://www.w3.org/2000/svg">
<path d="M98.3734 38.9089C99.5905 38.9089 100.661 38.7483 101.585 38.4271C102.523 38.1059 103.308 37.6606 103.938 37.0912C104.583 36.5072 105.067 35.8137 105.39 35.0107C105.712 34.2077 105.874 33.3244 105.874 32.3608C105.874 30.3606 105.25 28.7984 104.004 27.6742C102.772 26.55 100.895 25.9879 98.3734 25.9879H93.3147V38.9089H98.3734ZM98.3734 22.6372C100.368 22.6372 102.098 22.8708 103.564 23.338C105.045 23.7906 106.269 24.4403 107.237 25.2871C108.205 26.1339 108.923 27.1559 109.393 28.3531C109.877 29.5503 110.118 30.8862 110.118 32.3608C110.118 33.8208 109.862 35.1567 109.349 36.3685C108.835 37.5803 108.08 38.6242 107.083 39.5002C106.101 40.3762 104.876 41.0624 103.41 41.5588C101.959 42.0406 100.28 42.2815 98.3734 42.2815H93.3147V54.0199H89.0698V22.6372H98.3734ZM128.317 40.5076C128.317 39.6024 128.186 38.7775 127.922 38.0329C127.672 37.2737 127.298 36.624 126.8 36.0838C126.316 35.529 125.722 35.1056 125.018 34.8136C124.315 34.507 123.515 34.3537 122.621 34.3537C120.744 34.3537 119.256 34.9012 118.156 35.9962C117.071 37.0766 116.397 38.5804 116.133 40.5076H128.317ZM131.485 50.9101C131.001 51.4941 130.422 52.0051 129.747 52.4431C129.073 52.8665 128.347 53.2169 127.57 53.4943C126.807 53.7717 126.015 53.9761 125.194 54.1075C124.373 54.2535 123.559 54.3265 122.753 54.3265C121.213 54.3265 119.791 54.071 118.486 53.56C117.196 53.0344 116.074 52.2752 115.121 51.2824C114.182 50.275 113.449 49.034 112.921 47.5594C112.394 46.0848 112.13 44.3912 112.13 42.4786C112.13 40.931 112.364 39.4856 112.833 38.1424C113.317 36.7992 114.006 35.6385 114.901 34.6603C115.795 33.6675 116.888 32.8937 118.178 32.3389C119.468 31.7695 120.92 31.4848 122.533 31.4848C123.867 31.4848 125.099 31.7111 126.228 32.1637C127.372 32.6017 128.354 33.2441 129.175 34.0909C130.011 34.9231 130.664 35.9597 131.133 37.2007C131.602 38.4271 131.837 39.8287 131.837 41.4055C131.837 42.0187 131.771 42.4275 131.639 42.6319C131.507 42.8363 131.257 42.9385 130.891 42.9385H116.001C116.045 44.3401 116.235 45.5592 116.572 46.5958C116.924 47.6324 117.408 48.5011 118.024 49.2019C118.64 49.8881 119.373 50.4064 120.224 50.7568C121.074 51.0926 122.027 51.2605 123.083 51.2605C124.065 51.2605 124.908 51.151 125.612 50.932C126.331 50.6984 126.946 50.4502 127.46 50.1874C127.973 49.9246 128.398 49.6837 128.735 49.4647C129.087 49.2311 129.388 49.1143 129.637 49.1143C129.96 49.1143 130.209 49.2384 130.385 49.4866L131.485 50.9101ZM140.362 36.2809C141.066 34.7625 141.931 33.5799 142.958 32.7331C143.984 31.8717 145.238 31.441 146.719 31.441C147.188 31.441 147.635 31.4921 148.06 31.5943C148.5 31.6965 148.889 31.8571 149.226 32.0761L148.94 34.9888C148.852 35.3538 148.632 35.5363 148.28 35.5363C148.075 35.5363 147.774 35.4925 147.378 35.4049C146.983 35.3173 146.536 35.2735 146.037 35.2735C145.333 35.2735 144.703 35.3757 144.146 35.5801C143.603 35.7845 143.112 36.0911 142.672 36.4999C142.247 36.8941 141.858 37.3905 141.506 37.9891C141.169 38.5731 140.861 39.2447 140.582 40.0039V54.0199H136.645V31.8352H138.889C139.314 31.8352 139.607 31.9155 139.769 32.0761C139.93 32.2367 140.04 32.5141 140.099 32.9083L140.362 36.2809ZM156.606 48.6763C157.324 49.6399 158.109 50.3188 158.959 50.713C159.81 51.1072 160.763 51.3043 161.818 51.3043C163.901 51.3043 165.499 50.567 166.613 49.0924C167.728 47.6178 168.285 45.5154 168.285 42.7852C168.285 41.3398 168.153 40.0988 167.889 39.0622C167.64 38.0256 167.273 37.1788 166.789 36.5218C166.305 35.8502 165.711 35.3611 165.008 35.0545C164.304 34.7479 163.505 34.5946 162.61 34.5946C161.335 34.5946 160.213 34.8866 159.245 35.4706C158.292 36.0546 157.412 36.8795 156.606 37.9453V48.6763ZM156.408 35.2735C157.346 34.1201 158.431 33.193 159.663 32.4922C160.895 31.7914 162.302 31.441 163.886 31.441C165.176 31.441 166.342 31.6892 167.383 32.1856C168.424 32.6674 169.311 33.3901 170.044 34.3537C170.777 35.3027 171.342 36.4853 171.738 37.9015C172.134 39.3177 172.332 40.9456 172.332 42.7852C172.332 44.4204 172.112 45.9461 171.672 47.3623C171.232 48.7639 170.594 49.983 169.758 51.0196C168.937 52.0416 167.926 52.8519 166.723 53.4505C165.536 54.0345 164.194 54.3265 162.698 54.3265C161.335 54.3265 160.162 54.1002 159.179 53.6476C158.211 53.1804 157.354 52.538 156.606 51.7204V61.5316H152.669V31.8352H155.022C155.579 31.8352 155.924 32.1053 156.056 32.6455L156.408 35.2735ZM204.923 38.3395C204.923 40.6901 204.549 42.829 203.801 44.7562C203.054 46.6834 201.998 48.3332 200.634 49.7056C199.27 51.078 197.628 52.1438 195.707 52.903C193.801 53.6476 191.69 54.0199 189.373 54.0199H177.606V22.6372H189.373C191.69 22.6372 193.801 23.0168 195.707 23.776C197.628 24.5206 199.27 25.5864 200.634 26.9734C201.998 28.3458 203.054 29.9956 203.801 31.9228C204.549 33.85 204.923 35.9889 204.923 38.3395ZM200.546 38.3395C200.546 36.4123 200.282 34.6895 199.754 33.1711C199.227 31.6527 198.479 30.3679 197.511 29.3167C196.543 28.2655 195.37 27.4625 193.992 26.9077C192.614 26.3529 191.074 26.0755 189.373 26.0755H181.873V50.5816H189.373C191.074 50.5816 192.614 50.3042 193.992 49.7494C195.37 49.1946 196.543 48.3989 197.511 47.3623C198.479 46.3111 199.227 45.0263 199.754 43.5079C200.282 41.9895 200.546 40.2667 200.546 38.3395ZM230.513 50.5597L230.491 54.0199H211.07V22.6372H230.491V26.0974H215.337V36.5218H227.61V39.8506H215.337V50.5597H230.513ZM260.498 54.0199H256.276C255.953 54.0199 255.696 53.9396 255.506 53.779C255.33 53.6038 255.183 53.414 255.066 53.2096L246.62 40.0258C246.503 40.3762 246.371 40.6755 246.224 40.9237L237.998 53.2096C237.852 53.414 237.69 53.6038 237.514 53.779C237.353 53.9396 237.126 54.0199 236.833 54.0199H232.874L243.717 37.9015L233.313 22.6372H237.558C237.866 22.6372 238.094 22.6883 238.24 22.7905C238.387 22.8927 238.519 23.0387 238.636 23.2285L246.862 35.7991C246.965 35.4925 247.119 35.1567 247.324 34.7917L255.088 23.3161C255.205 23.1117 255.344 22.9511 255.506 22.8343C255.667 22.7029 255.858 22.6372 256.078 22.6372H260.147L249.699 37.7044L260.498 54.0199Z" fill="url(#paint0_linear_601_134)"/>
<path d="M4.58228 14.828L4.13651 13.9328L3.58228 14.2088V14.828H4.58228ZM20.6198 6.84155L21.0656 5.9464L20.6198 5.72442L20.1741 5.9464L20.6198 6.84155ZM4.58228 34.2188H3.58228V34.8381L4.13661 35.114L4.58228 34.2188ZM68.7326 14.828H69.7326V14.2088L69.1783 13.9328L68.7326 14.828ZM52.695 6.84155L53.1408 5.9464L52.695 5.72442L52.2492 5.9464L52.695 6.84155ZM68.7326 34.2188L69.1782 35.114L69.7326 34.8381V34.2188H68.7326ZM36.6574 69.578L36.2118 70.4732L36.6574 70.6951L37.1031 70.4732L36.6574 69.578ZM36.6574 34.2165L37.1032 33.3213L36.6574 33.0994L36.2117 33.3213L36.6574 34.2165ZM20.6198 61.5938H19.6198V62.2131L20.1742 62.489L20.6198 61.5938ZM52.695 61.5938L53.1407 62.489L53.695 62.2131V61.5938H52.695ZM4.1366 15.7232L20.1742 23.7076L21.0655 21.9172L5.02795 13.9328L4.1366 15.7232ZM21.0655 23.7076L37.1031 15.7232L36.2117 13.9328L20.1742 21.9172L21.0655 23.7076ZM19.6198 22.8124V42.203H21.6198V22.8124H19.6198ZM37.1032 13.9328L21.0656 5.9464L20.1741 7.7367L36.2117 15.7231L37.1032 13.9328ZM20.1741 5.9464L4.13651 13.9328L5.02804 15.7231L21.0656 7.7367L20.1741 5.9464ZM3.58228 14.828V34.2188H5.58228V14.828H3.58228ZM4.13661 35.114L20.1742 43.0982L21.0655 41.3078L5.02794 33.3236L4.13661 35.114ZM21.0655 43.0982L37.1031 35.114L36.2118 33.3236L20.1742 41.3078L21.0655 43.0982ZM37.6574 34.2188V14.828H35.6574V34.2188H37.6574ZM36.2117 15.7232L52.2493 23.7076L53.1407 21.9172L37.1031 13.9328L36.2117 15.7232ZM53.1407 23.7076L69.1782 15.7232L68.2869 13.9328L52.2493 21.9172L53.1407 23.7076ZM51.695 22.8124V42.203H53.695V22.8124H51.695ZM69.1783 13.9328L53.1408 5.9464L52.2492 7.7367L68.2868 15.7231L69.1783 13.9328ZM52.2492 5.9464L36.2117 13.9328L37.1032 15.7231L53.1408 7.7367L52.2492 5.9464ZM36.2118 35.114L52.2493 43.0982L53.1407 41.3078L37.1031 33.3236L36.2118 35.114ZM53.1407 43.0982L69.1782 35.114L68.2869 33.3236L52.2493 41.3078L53.1407 43.0982ZM69.7326 34.2188V14.828H67.7326V34.2188H69.7326ZM20.1742 43.0982L36.2117 51.0826L37.1031 49.2922L21.0655 41.3078L20.1742 43.0982ZM37.1031 51.0826L53.1407 43.0982L52.2493 41.3078L36.2117 49.2922L37.1031 51.0826ZM35.6574 50.1874V69.578H37.6574V50.1874H35.6574ZM53.1408 41.3078L37.1032 33.3213L36.2117 35.1116L52.2492 43.0981L53.1408 41.3078ZM36.2117 33.3213L20.1741 41.3078L21.0656 43.0981L37.1032 35.1116L36.2117 33.3213ZM19.6198 42.203V61.5938H21.6198V42.203H19.6198ZM20.1742 62.489L36.2118 70.4732L37.1031 68.6828L21.0655 60.6986L20.1742 62.489ZM37.1031 70.4732L53.1407 62.489L52.2493 60.6986L36.2118 68.6828L37.1031 70.4732ZM53.695 61.5938V42.203H51.695V61.5938H53.695Z" fill="url(#paint1_linear_601_134)"/>
<defs>
<linearGradient id="paint0_linear_601_134" x1="174.784" y1="22.6372" x2="174.784" y2="61.5316" gradientUnits="userSpaceOnUse">
<stop stop-color="#9699FA"/>
<stop offset="1" stop-color="#F90077"/>
</linearGradient>
<linearGradient id="paint1_linear_601_134" x1="36.6574" y1="6.84155" x2="36.6574" y2="69.578" gradientUnits="userSpaceOnUse">
<stop stop-color="#9699FA"/>
<stop offset="1" stop-color="#F90077"/>
</linearGradient>
</defs>
</svg>
