<svg width="178" height="50" viewBox="0 0 178 50" fill="none" xmlns="http://www.w3.org/2000/svg">
<path d="M67.0901 26.65C67.9201 26.65 68.6501 26.54 69.2801 26.32C69.9201 26.1 70.4551 25.795 70.8851 25.405C71.3251 25.005 71.6551 24.53 71.8751 23.98C72.0951 23.43 72.2051 22.825 72.2051 22.165C72.2051 20.795 71.7801 19.725 70.9301 18.955C70.0901 18.185 68.8101 17.8 67.0901 17.8H63.6401V26.65H67.0901ZM67.0901 15.505C68.4501 15.505 69.6301 15.665 70.6301 15.985C71.6401 16.295 72.4751 16.74 73.1351 17.32C73.7951 17.9 74.2851 18.6 74.6051 19.42C74.9351 20.24 75.1001 21.155 75.1001 22.165C75.1001 23.165 74.9251 24.08 74.5751 24.91C74.2251 25.74 73.7101 26.455 73.0301 27.055C72.3601 27.655 71.5251 28.125 70.5251 28.465C69.5351 28.795 68.3901 28.96 67.0901 28.96H63.6401V37H60.7451V15.505H67.0901ZM87.5117 27.745C87.5117 27.125 87.4217 26.56 87.2417 26.05C87.0717 25.53 86.8167 25.085 86.4767 24.715C86.1467 24.335 85.7417 24.045 85.2617 23.845C84.7817 23.635 84.2367 23.53 83.6267 23.53C82.3467 23.53 81.3317 23.905 80.5817 24.655C79.8417 25.395 79.3817 26.425 79.2017 27.745H87.5117ZM89.6717 34.87C89.3417 35.27 88.9467 35.62 88.4867 35.92C88.0267 36.21 87.5317 36.45 87.0017 36.64C86.4817 36.83 85.9417 36.97 85.3817 37.06C84.8217 37.16 84.2667 37.21 83.7167 37.21C82.6667 37.21 81.6967 37.035 80.8067 36.685C79.9267 36.325 79.1617 35.805 78.5117 35.125C77.8717 34.435 77.3717 33.585 77.0117 32.575C76.6517 31.565 76.4717 30.405 76.4717 29.095C76.4717 28.035 76.6317 27.045 76.9517 26.125C77.2817 25.205 77.7517 24.41 78.3617 23.74C78.9717 23.06 79.7167 22.53 80.5967 22.15C81.4767 21.76 82.4667 21.565 83.5667 21.565C84.4767 21.565 85.3167 21.72 86.0867 22.03C86.8667 22.33 87.5367 22.77 88.0967 23.35C88.6667 23.92 89.1117 24.63 89.4317 25.48C89.7517 26.32 89.9117 27.28 89.9117 28.36C89.9117 28.78 89.8667 29.06 89.7767 29.2C89.6867 29.34 89.5167 29.41 89.2667 29.41H79.1117C79.1417 30.37 79.2717 31.205 79.5017 31.915C79.7417 32.625 80.0717 33.22 80.4917 33.7C80.9117 34.17 81.4117 34.525 81.9917 34.765C82.5717 34.995 83.2217 35.11 83.9417 35.11C84.6117 35.11 85.1867 35.035 85.6667 34.885C86.1567 34.725 86.5767 34.555 86.9267 34.375C87.2767 34.195 87.5667 34.03 87.7967 33.88C88.0367 33.72 88.2417 33.64 88.4117 33.64C88.6317 33.64 88.8017 33.725 88.9217 33.895L89.6717 34.87ZM95.7263 24.85C96.2063 23.81 96.7963 23 97.4963 22.42C98.1963 21.83 99.0513 21.535 100.061 21.535C100.381 21.535 100.686 21.57 100.976 21.64C101.276 21.71 101.541 21.82 101.771 21.97L101.576 23.965C101.516 24.215 101.366 24.34 101.126 24.34C100.986 24.34 100.781 24.31 100.511 24.25C100.241 24.19 99.9363 24.16 99.5963 24.16C99.1163 24.16 98.6863 24.23 98.3063 24.37C97.9363 24.51 97.6013 24.72 97.3013 25C97.0113 25.27 96.7463 25.61 96.5063 26.02C96.2763 26.42 96.0663 26.88 95.8763 27.4V37H93.1913V21.805H94.7213C95.0113 21.805 95.2113 21.86 95.3213 21.97C95.4313 22.08 95.5063 22.27 95.5463 22.54L95.7263 24.85ZM106.804 33.34C107.294 34 107.829 34.465 108.409 34.735C108.989 35.005 109.639 35.14 110.359 35.14C111.779 35.14 112.869 34.635 113.629 33.625C114.389 32.615 114.769 31.175 114.769 29.305C114.769 28.315 114.679 27.465 114.499 26.755C114.329 26.045 114.079 25.465 113.749 25.015C113.419 24.555 113.014 24.22 112.534 24.01C112.054 23.8 111.509 23.695 110.899 23.695C110.029 23.695 109.264 23.895 108.604 24.295C107.954 24.695 107.354 25.26 106.804 25.99V33.34ZM106.669 24.16C107.309 23.37 108.049 22.735 108.889 22.255C109.729 21.775 110.689 21.535 111.769 21.535C112.649 21.535 113.444 21.705 114.154 22.045C114.864 22.375 115.469 22.87 115.969 23.53C116.469 24.18 116.854 24.99 117.124 25.96C117.394 26.93 117.529 28.045 117.529 29.305C117.529 30.425 117.379 31.47 117.079 32.44C116.779 33.4 116.344 34.235 115.774 34.945C115.214 35.645 114.524 36.2 113.704 36.61C112.894 37.01 111.979 37.21 110.959 37.21C110.029 37.21 109.229 37.055 108.559 36.745C107.899 36.425 107.314 35.985 106.804 35.425V42.145H104.119V21.805H105.724C106.104 21.805 106.339 21.99 106.429 22.36L106.669 24.16ZM139.756 26.26C139.756 27.87 139.501 29.335 138.991 30.655C138.481 31.975 137.761 33.105 136.831 34.045C135.901 34.985 134.781 35.715 133.471 36.235C132.171 36.745 130.731 37 129.151 37H121.126V15.505H129.151C130.731 15.505 132.171 15.765 133.471 16.285C134.781 16.795 135.901 17.525 136.831 18.475C137.761 19.415 138.481 20.545 138.991 21.865C139.501 23.185 139.756 24.65 139.756 26.26ZM136.771 26.26C136.771 24.94 136.591 23.76 136.231 22.72C135.871 21.68 135.361 20.8 134.701 20.08C134.041 19.36 133.241 18.81 132.301 18.43C131.361 18.05 130.311 17.86 129.151 17.86H124.036V34.645H129.151C130.311 34.645 131.361 34.455 132.301 34.075C133.241 33.695 134.041 33.15 134.701 32.44C135.361 31.72 135.871 30.84 136.231 29.8C136.591 28.76 136.771 27.58 136.771 26.26ZM157.208 34.63L157.193 37H143.948V15.505H157.193V17.875H146.858V25.015H155.228V27.295H146.858V34.63H157.208ZM177.658 37H174.778C174.558 37 174.383 36.945 174.253 36.835C174.133 36.715 174.033 36.585 173.953 36.445L168.193 27.415C168.113 27.655 168.023 27.86 167.923 28.03L162.313 36.445C162.213 36.585 162.103 36.715 161.983 36.835C161.873 36.945 161.718 37 161.518 37H158.818L166.213 25.96L159.118 15.505H162.013C162.223 15.505 162.378 15.54 162.478 15.61C162.578 15.68 162.668 15.78 162.748 15.91L168.358 24.52C168.428 24.31 168.533 24.08 168.673 23.83L173.968 15.97C174.048 15.83 174.143 15.72 174.253 15.64C174.363 15.55 174.493 15.505 174.643 15.505H177.418L170.293 25.825L177.658 37Z" fill="url(#paint0_linear_589_78)"/>
<path d="M3.125 10.1562L14.0625 15.625L25 10.1562" stroke="url(#paint1_linear_589_78)" stroke-width="2" stroke-miterlimit="10"/>
<path d="M14.0625 15.625V28.9062" stroke="url(#paint2_linear_589_78)" stroke-width="2" stroke-miterlimit="10"/>
<path d="M25 10.1563L14.0625 4.68604L3.125 10.1563V23.4376L14.0625 28.9063L25 23.4376V10.1563Z" stroke="url(#paint3_linear_589_78)" stroke-width="2" stroke-miterlimit="10" stroke-linecap="square"/>
<path d="M25 10.1562L35.9375 15.625L46.875 10.1562" stroke="url(#paint4_linear_589_78)" stroke-width="2" stroke-miterlimit="10"/>
<path d="M35.9375 15.625V28.9062" stroke="url(#paint5_linear_589_78)" stroke-width="2" stroke-miterlimit="10"/>
<path d="M46.875 10.1563L35.9375 4.68604L25 10.1563V23.4376L35.9375 28.9063L46.875 23.4376V10.1563Z" stroke="url(#paint6_linear_589_78)" stroke-width="2" stroke-miterlimit="10" stroke-linecap="square"/>
<path d="M14.0625 28.9062L25 34.375L35.9375 28.9062" stroke="url(#paint7_linear_589_78)" stroke-width="2" stroke-miterlimit="10"/>
<path d="M25 34.375V47.6562" stroke="url(#paint8_linear_589_78)" stroke-width="2" stroke-miterlimit="10"/>
<path d="M35.9375 28.9063L25 23.436L14.0625 28.9063V42.1876L25 47.6563L35.9375 42.1876V28.9063Z" stroke="url(#paint9_linear_589_78)" stroke-width="2" stroke-miterlimit="10" stroke-linecap="square"/>
<defs>
<linearGradient id="paint0_linear_589_78" x1="118" y1="7.00001" x2="118" y2="43" gradientUnits="userSpaceOnUse">
<stop stop-color="#9699FA"/>
<stop offset="1" stop-color="#F90077"/>
</linearGradient>
<linearGradient id="paint1_linear_589_78" x1="14.0625" y1="10.1562" x2="14.0625" y2="15.625" gradientUnits="userSpaceOnUse">
<stop stop-color="#9699FA"/>
<stop offset="1" stop-color="#F90077"/>
</linearGradient>
<linearGradient id="paint2_linear_589_78" x1="-nan" y1="-nan" x2="-nan" y2="-nan" gradientUnits="userSpaceOnUse">
<stop stop-color="#9699FA"/>
<stop offset="1" stop-color="#F90077"/>
</linearGradient>
<linearGradient id="paint3_linear_589_78" x1="14.0625" y1="4.68604" x2="14.0625" y2="28.9063" gradientUnits="userSpaceOnUse">
<stop stop-color="#9699FA"/>
<stop offset="1" stop-color="#F90077"/>
</linearGradient>
<linearGradient id="paint4_linear_589_78" x1="35.9375" y1="10.1562" x2="35.9375" y2="15.625" gradientUnits="userSpaceOnUse">
<stop stop-color="#9699FA"/>
<stop offset="1" stop-color="#F90077"/>
</linearGradient>
<linearGradient id="paint5_linear_589_78" x1="-nan" y1="-nan" x2="-nan" y2="-nan" gradientUnits="userSpaceOnUse">
<stop stop-color="#9699FA"/>
<stop offset="1" stop-color="#F90077"/>
</linearGradient>
<linearGradient id="paint6_linear_589_78" x1="35.9375" y1="4.68604" x2="35.9375" y2="28.9063" gradientUnits="userSpaceOnUse">
<stop stop-color="#9699FA"/>
<stop offset="1" stop-color="#F90077"/>
</linearGradient>
<linearGradient id="paint7_linear_589_78" x1="25" y1="28.9062" x2="25" y2="34.375" gradientUnits="userSpaceOnUse">
<stop stop-color="#9699FA"/>
<stop offset="1" stop-color="#F90077"/>
</linearGradient>
<linearGradient id="paint8_linear_589_78" x1="-nan" y1="-nan" x2="-nan" y2="-nan" gradientUnits="userSpaceOnUse">
<stop stop-color="#9699FA"/>
<stop offset="1" stop-color="#F90077"/>
</linearGradient>
<linearGradient id="paint9_linear_589_78" x1="25" y1="23.436" x2="25" y2="47.6563" gradientUnits="userSpaceOnUse">
<stop stop-color="#9699FA"/>
<stop offset="1" stop-color="#F90077"/>
</linearGradient>
</defs>
</svg>
