<svg width="46" height="45" viewBox="0 0 46 45" fill="none" xmlns="http://www.w3.org/2000/svg">
<path d="M1.08984 6.95353L0.645718 6.05757L0.0898438 6.33311V6.95353H1.08984ZM11.9045 1.59277L12.3486 0.696809L11.9045 0.476658L11.4603 0.696809L11.9045 1.59277ZM1.08984 19.9693H0.0898438V20.5898L0.64582 20.8653L1.08984 19.9693ZM44.3483 6.95353H45.3483V6.33311L44.7924 6.05757L44.3483 6.95353ZM33.5337 1.59277L33.9778 0.696809L33.5337 0.476658L33.0895 0.696809L33.5337 1.59277ZM44.3483 19.9693L44.7923 20.8653L45.3483 20.5898V19.9693H44.3483ZM22.7191 43.7035L22.275 44.5995L22.7191 44.8196L23.1631 44.5995L22.7191 43.7035ZM22.7191 19.9677L23.1632 19.0718L22.7191 18.8516L22.2749 19.0718L22.7191 19.9677ZM11.9045 38.3443H10.9045V38.9648L11.4604 39.2403L11.9045 38.3443ZM33.5337 38.3443L33.9777 39.2403L34.5337 38.9648V38.3443H33.5337ZM0.645807 7.84954L11.4604 13.209L12.3485 11.4169L1.53388 6.05752L0.645807 7.84954ZM12.3485 13.209L23.1631 7.84954L22.275 6.05752L11.4604 11.4169L12.3485 13.209ZM10.9045 12.313V25.3285H12.9045V12.313H10.9045ZM23.1632 6.05757L12.3486 0.696809L11.4603 2.48874L22.2749 7.84949L23.1632 6.05757ZM11.4603 0.696809L0.645718 6.05757L1.53397 7.84949L12.3486 2.48874L11.4603 0.696809ZM0.0898438 6.95353V19.9693H2.08984V6.95353H0.0898438ZM0.64582 20.8653L11.4604 26.2245L12.3485 24.4325L1.53387 19.0733L0.64582 20.8653ZM12.3485 26.2245L23.1631 20.8653L22.275 19.0733L11.4604 24.4325L12.3485 26.2245ZM23.7191 19.9693V6.95353H21.7191V19.9693H23.7191ZM22.275 7.84954L33.0896 13.209L33.9777 11.4169L23.1631 6.05752L22.275 7.84954ZM33.9777 13.209L44.7923 7.84954L43.9042 6.05752L33.0896 11.4169L33.9777 13.209ZM32.5337 12.313V25.3285H34.5337V12.313H32.5337ZM44.7924 6.05757L33.9778 0.696809L33.0895 2.48874L43.9042 7.84949L44.7924 6.05757ZM33.0895 0.696809L22.2749 6.05757L23.1632 7.84949L33.9778 2.48874L33.0895 0.696809ZM22.275 20.8653L33.0896 26.2245L33.9777 24.4325L23.1631 19.0733L22.275 20.8653ZM33.9777 26.2245L44.7923 20.8653L43.9043 19.0733L33.0896 24.4325L33.9777 26.2245ZM45.3483 19.9693V6.95353H43.3483V19.9693H45.3483ZM11.4604 26.2245L22.275 31.584L23.1631 29.7919L12.3485 24.4325L11.4604 26.2245ZM23.1631 31.584L33.9777 26.2245L33.0896 24.4325L22.275 29.7919L23.1631 31.584ZM21.7191 30.688V43.7035H23.7191V30.688H21.7191ZM33.9778 24.4326L23.1632 19.0718L22.2749 20.8637L33.0895 26.2245L33.9778 24.4326ZM22.2749 19.0718L11.4603 24.4326L12.3486 26.2245L23.1632 20.8637L22.2749 19.0718ZM10.9045 25.3285V38.3443H12.9045V25.3285H10.9045ZM11.4604 39.2403L22.275 44.5995L23.1631 42.8075L12.3485 37.4483L11.4604 39.2403ZM23.1631 44.5995L33.9777 39.2403L33.0896 37.4483L22.275 42.8075L23.1631 44.5995ZM34.5337 38.3443V25.3285H32.5337V38.3443H34.5337Z" fill="url(#paint0_linear_760_202)"/>
<defs>
<linearGradient id="paint0_linear_760_202" x1="22.7191" y1="1.59277" x2="22.7191" y2="43.7035" gradientUnits="userSpaceOnUse">
<stop stop-color="#9699FA"/>
<stop offset="1" stop-color="#F90077"/>
</linearGradient>
</defs>
</svg>
