<svg width="67" height="66" viewBox="0 0 67 66" fill="none" xmlns="http://www.w3.org/2000/svg">
<path d="M1.58228 9.82799L1.13651 8.93284L0.582275 9.20884V9.82799H1.58228ZM17.6198 1.84155L18.0656 0.946404L17.6198 0.724419L17.1741 0.946404L17.6198 1.84155ZM1.58228 29.2188H0.582275V29.8381L1.13661 30.114L1.58228 29.2188ZM65.7326 9.82799H66.7326V9.20884L66.1783 8.93284L65.7326 9.82799ZM49.695 1.84155L50.1408 0.946404L49.695 0.724419L49.2492 0.946404L49.695 1.84155ZM65.7326 29.2188L66.1782 30.114L66.7326 29.8381V29.2188H65.7326ZM33.6574 64.578L33.2118 65.4732L33.6574 65.6951L34.1031 65.4732L33.6574 64.578ZM33.6574 29.2165L34.1032 28.3213L33.6574 28.0994L33.2117 28.3213L33.6574 29.2165ZM17.6198 56.5938H16.6198V57.2131L17.1742 57.489L17.6198 56.5938ZM49.695 56.5938L50.1407 57.489L50.695 57.2131V56.5938H49.695ZM1.1366 10.7232L17.1742 18.7076L18.0655 16.9172L2.02795 8.93279L1.1366 10.7232ZM18.0655 18.7076L34.1031 10.7232L33.2117 8.93279L17.1742 16.9172L18.0655 18.7076ZM16.6198 17.8124V37.203H18.6198V17.8124H16.6198ZM34.1032 8.93284L18.0656 0.946404L17.1741 2.7367L33.2117 10.7231L34.1032 8.93284ZM17.1741 0.946404L1.13651 8.93284L2.02804 10.7231L18.0656 2.7367L17.1741 0.946404ZM0.582275 9.82799V29.2188H2.58228V9.82799H0.582275ZM1.13661 30.114L17.1742 38.0982L18.0655 36.3078L2.02794 28.3236L1.13661 30.114ZM18.0655 38.0982L34.1031 30.114L33.2118 28.3236L17.1742 36.3078L18.0655 38.0982ZM34.6574 29.2188V9.82799H32.6574V29.2188H34.6574ZM33.2117 10.7232L49.2493 18.7076L50.1407 16.9172L34.1031 8.93279L33.2117 10.7232ZM50.1407 18.7076L66.1782 10.7232L65.2869 8.93279L49.2493 16.9172L50.1407 18.7076ZM48.695 17.8124V37.203H50.695V17.8124H48.695ZM66.1783 8.93284L50.1408 0.946404L49.2492 2.7367L65.2868 10.7231L66.1783 8.93284ZM49.2492 0.946404L33.2117 8.93284L34.1032 10.7231L50.1408 2.7367L49.2492 0.946404ZM33.2118 30.114L49.2493 38.0982L50.1407 36.3078L34.1031 28.3236L33.2118 30.114ZM50.1407 38.0982L66.1782 30.114L65.2869 28.3236L49.2493 36.3078L50.1407 38.0982ZM66.7326 29.2188V9.82799H64.7326V29.2188H66.7326ZM17.1742 38.0982L33.2117 46.0826L34.1031 44.2922L18.0655 36.3078L17.1742 38.0982ZM34.1031 46.0826L50.1407 38.0982L49.2493 36.3078L33.2117 44.2922L34.1031 46.0826ZM32.6574 45.1874V64.578H34.6574V45.1874H32.6574ZM50.1408 36.3078L34.1032 28.3213L33.2117 30.1116L49.2492 38.0981L50.1408 36.3078ZM33.2117 28.3213L17.1741 36.3078L18.0656 38.0981L34.1032 30.1116L33.2117 28.3213ZM16.6198 37.203V56.5938H18.6198V37.203H16.6198ZM17.1742 57.489L33.2118 65.4732L34.1031 63.6828L18.0655 55.6986L17.1742 57.489ZM34.1031 65.4732L50.1407 57.489L49.2493 55.6986L33.2118 63.6828L34.1031 65.4732ZM50.695 56.5938V37.203H48.695V56.5938H50.695Z" fill="url(#paint0_linear_618_94)"/>
<defs>
<linearGradient id="paint0_linear_618_94" x1="33.6574" y1="1.84155" x2="33.6574" y2="64.578" gradientUnits="userSpaceOnUse">
<stop stop-color="#9699FA"/>
<stop offset="1" stop-color="#F90077"/>
</linearGradient>
</defs>
</svg>
