<svg width="64" height="64" viewBox="0 0 64 64" fill="none" xmlns="http://www.w3.org/2000/svg">
<path d="M12 44H4V57H12V44Z" stroke="#F90077" stroke-width="2" stroke-miterlimit="10" stroke-linecap="square"/>
<path d="M44 43H36V57H44V43Z" stroke="#F90077" stroke-width="2" stroke-miterlimit="10" stroke-linecap="square"/>
<path d="M28 27H20V57H28V27Z" stroke="#F90077" stroke-width="2" stroke-miterlimit="10" stroke-linecap="square"/>
<path d="M60 27H52V57H60V27Z" stroke="#F90077" stroke-width="2" stroke-miterlimit="10" stroke-linecap="square"/>
<path d="M8 31C10.2091 31 12 29.2091 12 27C12 24.7909 10.2091 23 8 23C5.79086 23 4 24.7909 4 27C4 29.2091 5.79086 31 8 31Z" stroke="#F90077" stroke-width="2" stroke-miterlimit="10"/>
<path d="M40 31C42.2091 31 44 29.2091 44 27C44 24.7909 42.2091 23 40 23C37.7909 23 36 24.7909 36 27C36 29.2091 37.7909 31 40 31Z" stroke="#F90077" stroke-width="2" stroke-miterlimit="10"/>
<path d="M24 15C26.2091 15 28 13.2091 28 11C28 8.79086 26.2091 7 24 7C21.7909 7 20 8.79086 20 11C20 13.2091 21.7909 15 24 15Z" stroke="#F90077" stroke-width="2" stroke-miterlimit="10"/>
<path d="M56 15C58.2091 15 60 13.2091 60 11C60 8.79086 58.2091 7 56 7C53.7909 7 52 8.79086 52 11C52 13.2091 53.7909 15 56 15Z" stroke="#F90077" stroke-width="2" stroke-miterlimit="10"/>
<path d="M10.8279 24.172L21.1719 13.828" stroke="#F90077" stroke-width="2" stroke-miterlimit="10"/>
<path d="M37.1719 24.172L26.8279 13.828" stroke="#F90077" stroke-width="2" stroke-miterlimit="10"/>
<path d="M42.8279 24.172L53.1719 13.828" stroke="#F90077" stroke-width="2" stroke-miterlimit="10"/>
</svg>
