<svg width="14" height="14" viewBox="0 0 14 14" fill="none" xmlns="http://www.w3.org/2000/svg">
<path d="M12.9277 3.29929C12.4823 3.49628 12.0101 3.62565 11.5265 3.68312C12.0362 3.37829 12.4177 2.89855 12.5998 2.33329C12.1215 2.61796 11.5971 2.81746 11.0505 2.92537C10.6834 2.53254 10.1967 2.27202 9.66624 2.1843C9.13575 2.09658 8.59115 2.18658 8.11709 2.4403C7.64303 2.69403 7.26607 3.09727 7.04483 3.58734C6.82359 4.0774 6.77045 4.62683 6.89368 5.15021C5.92366 5.10159 4.97471 4.84951 4.10843 4.41034C3.24216 3.97118 2.47792 3.35474 1.86535 2.60104C1.64852 2.97347 1.53457 3.39684 1.53518 3.82779C1.53518 4.67362 1.96568 5.42087 2.62018 5.85837C2.23285 5.84618 1.85405 5.74158 1.51535 5.55329V5.58362C1.51546 6.14695 1.7104 6.6929 2.06709 7.12891C2.42379 7.56492 2.9203 7.86415 3.47243 7.97587C3.11287 8.07331 2.73586 8.08767 2.36993 8.01787C2.5256 8.50276 2.82902 8.92682 3.23769 9.23069C3.64637 9.53455 4.13984 9.703 4.64901 9.71246C4.14296 10.1099 3.56353 10.4037 2.94386 10.5771C2.32419 10.7504 1.67642 10.7999 1.0376 10.7228C2.15275 11.44 3.4509 11.8207 4.77676 11.8195C9.26435 11.8195 11.7184 8.10187 11.7184 4.87779C11.7184 4.77279 11.7155 4.66662 11.7108 4.56279C12.1885 4.21756 12.6008 3.78989 12.9283 3.29987L12.9277 3.29929Z" fill="#B8B8B8"/>
</svg>
