<svg width="64" height="64" viewBox="0 0 64 64" fill="none" xmlns="http://www.w3.org/2000/svg">
<path d="M10 40H7C5.67392 40 4.40215 39.4732 3.46447 38.5355C2.52678 37.5979 2 36.3261 2 35V13C2 11.6739 2.52678 10.4021 3.46447 9.46447C4.40215 8.52678 5.67392 8 7 8H43C43.6566 8 44.3068 8.12933 44.9134 8.3806C45.52 8.63188 46.0712 9.00017 46.5355 9.46447C46.9998 9.92876 47.3681 10.48 47.6194 11.0866C47.8707 11.6932 48 12.3434 48 13V35C48 35.6566 47.8707 36.3068 47.6194 36.9134C47.3681 37.52 46.9998 38.0712 46.5355 38.5355C46.0712 38.9998 45.52 39.3681 44.9134 39.6194C44.3068 39.8707 43.6566 40 43 40H22" stroke="#F90077" stroke-width="2" stroke-miterlimit="10" stroke-linecap="square"/>
<path d="M54 24H57C58.3261 24 59.5979 24.5268 60.5355 25.4645C61.4732 26.4021 62 27.6739 62 29V51C62 52.3261 61.4732 53.5979 60.5355 54.5355C59.5979 55.4732 58.3261 56 57 56H21C19.6739 56 18.4021 55.4732 17.4645 54.5355C16.5268 53.5979 16 52.3261 16 51V29C16 27.6739 16.5268 26.4021 17.4645 25.4645C18.4021 24.5268 19.6739 24 21 24H42" stroke="#F90077" stroke-width="2" stroke-miterlimit="10" stroke-linecap="square"/>
</svg>
