<svg width="25" height="25" viewBox="0 0 25 25" fill="none" xmlns="http://www.w3.org/2000/svg">
<path d="M5.125 17.7083H9.375C9.49106 17.7083 9.54909 17.7083 9.59816 17.7099C11.178 17.7617 12.4467 19.0303 12.4984 20.6102C12.5 20.6592 12.5 20.7173 12.5 20.8333V10.1667C12.5 7.33824 12.5 5.92403 11.6213 5.04535C10.7426 4.16667 9.32843 4.16667 6.5 4.16667H5.125C4.18219 4.16667 3.71079 4.16667 3.41789 4.45956C3.125 4.75245 3.125 5.22386 3.125 6.16667V15.7083C3.125 16.6511 3.125 17.1225 3.41789 17.4154C3.71079 17.7083 4.18219 17.7083 5.125 17.7083Z" stroke="#F90077" stroke-width="2"/>
<path d="M19.875 17.7083H15.625C15.5089 17.7083 15.4509 17.7083 15.4018 17.7099C13.822 17.7617 12.5533 19.0303 12.5016 20.6102C12.5 20.6592 12.5 20.7173 12.5 20.8333V10.1667C12.5 7.33824 12.5 5.92403 13.3787 5.04535C14.2574 4.16667 15.6716 4.16667 18.5 4.16667H19.875C20.8178 4.16667 21.2892 4.16667 21.5821 4.45956C21.875 4.75245 21.875 5.22386 21.875 6.16667V15.7083C21.875 16.6511 21.875 17.1225 21.5821 17.4154C21.2892 17.7083 20.8178 17.7083 19.875 17.7083Z" stroke="#F90077" stroke-width="2"/>
</svg>
