<svg width="18" height="18" viewBox="0 0 18 18" fill="none" xmlns="http://www.w3.org/2000/svg">
<path d="M7.557 8.25C8.007 8.25 8.3715 8.5875 8.36325 9C8.36325 9.4125 8.00775 9.75 7.557 9.75C7.1145 9.75 6.75 9.4125 6.75 9C6.75 8.5875 7.10625 8.25 7.557 8.25ZM10.443 8.25C10.8938 8.25 11.25 8.5875 11.25 9C11.25 9.4125 10.8938 9.75 10.443 9.75C10.0005 9.75 9.63675 9.4125 9.63675 9C9.63675 8.5875 9.99225 8.25 10.443 8.25ZM14.1683 1.5C15.0405 1.5 15.75 2.2245 15.75 3.12225V17.25L14.0917 15.7537L13.158 14.8717L12.1702 13.9342L12.5798 15.3915H3.83175C2.9595 15.3915 2.25 14.667 2.25 13.7692V3.12225C2.25 2.2245 2.9595 1.5 3.83175 1.5H14.1675H14.1683ZM11.1908 11.7847C12.8955 11.73 13.5518 10.5877 13.5518 10.5877C13.5518 8.052 12.4403 5.99625 12.4403 5.99625C11.3302 5.1465 10.2727 5.16975 10.2727 5.16975L10.1648 5.29575C11.4765 5.70525 12.0855 6.29625 12.0855 6.29625C11.3693 5.89274 10.58 5.63575 9.7635 5.54025C9.24558 5.48175 8.72245 5.48679 8.20575 5.55525C8.15925 5.55525 8.12025 5.5635 8.0745 5.571C7.8045 5.595 7.14825 5.697 6.32325 6.0675C6.03825 6.201 5.868 6.29625 5.868 6.29625C5.868 6.29625 6.5085 5.67375 7.89675 5.26425L7.8195 5.16975C7.8195 5.16975 6.76275 5.1465 5.652 5.997C5.652 5.997 4.54125 8.052 4.54125 10.5877C4.54125 10.5877 5.18925 11.7292 6.894 11.7847C6.894 11.7847 7.179 11.4307 7.4115 11.1315C6.43125 10.8315 6.0615 10.2015 6.0615 10.2015C6.0615 10.2015 6.138 10.257 6.27675 10.3358C6.28425 10.3433 6.29175 10.3515 6.3075 10.359C6.33075 10.3755 6.354 10.383 6.37725 10.3988C6.57 10.509 6.76275 10.5953 6.93975 10.6665C7.25625 10.7925 7.63425 10.9185 8.0745 11.0055C8.73399 11.1348 9.41206 11.1373 10.0725 11.013C10.4572 10.9443 10.8325 10.8308 11.1908 10.6747C11.4607 10.572 11.7615 10.422 12.078 10.2098C12.078 10.2098 11.6925 10.8555 10.6815 11.1473C10.9132 11.4465 11.1915 11.7847 11.1915 11.7847H11.1908Z" fill="#F90077"/>
</svg>
