<svg width="18" height="18" viewBox="0 0 18 18" fill="none" xmlns="http://www.w3.org/2000/svg">
<path d="M3 2.25H15C15.1989 2.25 15.3897 2.32902 15.5303 2.46967C15.671 2.61032 15.75 2.80109 15.75 3V15C15.75 15.1989 15.671 15.3897 15.5303 15.5303C15.3897 15.671 15.1989 15.75 15 15.75H3C2.80109 15.75 2.61032 15.671 2.46967 15.5303C2.32902 15.3897 2.25 15.1989 2.25 15V3C2.25 2.80109 2.32902 2.61032 2.46967 2.46967C2.61032 2.32902 2.80109 2.25 3 2.25ZM12.975 11.955C12.9 11.9175 12.8625 11.805 12.8625 11.7292V6.0045C12.8625 5.9295 12.9 5.817 12.975 5.74125L13.6912 4.9125V4.875H11.13L9.21 9.7335L7.0245 4.875H4.389V4.9125L5.06625 5.8545C5.217 6.0045 5.2545 6.231 5.2545 6.41925V10.5615C5.292 10.788 5.2545 11.0512 5.142 11.277L4.125 12.6705V12.708H6.837V12.6705L5.82 11.3152C5.7075 11.0887 5.66925 10.863 5.7075 10.5997V6.8325C5.745 6.9075 5.7825 6.9075 5.82 7.05825L8.3805 12.783H8.418L10.905 6.57C10.8675 6.795 10.8675 7.059 10.8675 7.248V11.6917C10.8675 11.8042 10.83 11.8792 10.755 11.955L10.0012 12.6705V12.708H13.692V12.6705L12.9765 11.955H12.975Z" fill="#F90077"/>
</svg>
