<svg width="18" height="18" viewBox="0 0 18 18" fill="none" xmlns="http://www.w3.org/2000/svg">
<path d="M16.6217 4.242C16.0491 4.49527 15.4419 4.6616 14.8202 4.7355C15.4755 4.34357 15.966 3.72676 16.2002 3C15.5852 3.366 14.911 3.6225 14.2082 3.76125C13.7362 3.25618 13.1105 2.92122 12.4284 2.80844C11.7464 2.69565 11.0462 2.81137 10.4367 3.13759C9.82717 3.46381 9.34251 3.98226 9.05806 4.61234C8.7736 5.24242 8.70528 5.94883 8.86372 6.62175C7.61655 6.55924 6.39647 6.23514 5.28269 5.6705C4.1689 5.10585 3.18632 4.31328 2.39872 3.34425C2.11994 3.82309 1.97344 4.36742 1.97422 4.9215C1.97422 6.009 2.52772 6.96975 3.36922 7.53225C2.87123 7.51657 2.3842 7.38208 1.94872 7.14V7.179C1.94887 7.90327 2.1995 8.60521 2.65811 9.16579C3.11672 9.72638 3.75508 10.1111 4.46497 10.2547C4.00268 10.38 3.51795 10.3985 3.04747 10.3087C3.24762 10.9322 3.63773 11.4774 4.16317 11.8681C4.68861 12.2588 5.32307 12.4753 5.97772 12.4875C5.32708 12.9985 4.58211 13.3762 3.78538 13.5991C2.98866 13.822 2.15582 13.8857 1.33447 13.7865C2.76825 14.7086 4.4373 15.1981 6.14197 15.1965C11.9117 15.1965 15.067 10.4167 15.067 6.2715C15.067 6.1365 15.0632 6 15.0572 5.8665C15.6714 5.42262 16.2014 4.87276 16.6225 4.24275L16.6217 4.242Z" fill="#F90077"/>
</svg>
