<svg width="30" height="30" viewBox="0 0 30 30" fill="none" xmlns="http://www.w3.org/2000/svg">
<path d="M1 4.37821L0.627355 3.61425L0.15 3.84709V4.37821H1ZM7.92567 1L8.29832 0.236039L7.92567 0.0542705L7.55303 0.236039L7.92567 1ZM1 13.1622H0.15V13.6933L0.627339 13.9261L1 13.1622ZM28.7027 4.37821H29.5527V3.84709L29.0753 3.61425L28.7027 4.37821ZM21.777 1L22.1497 0.236039L21.777 0.0542705L21.4044 0.236039L21.777 1ZM28.7027 13.1622L29.0754 13.9261L29.5527 13.6933V13.1622H28.7027ZM14.8513 28.7027L14.4787 29.4666L14.8513 29.6484L15.224 29.4666L14.8513 28.7027ZM7.92567 25.3243H7.07567V25.8554L7.55301 26.0882L7.92567 25.3243ZM21.777 25.3243L22.1497 26.0882L22.627 25.8554V25.3243H21.777ZM0.627339 5.14216L7.55301 8.52055L8.29833 6.99264L1.37266 3.61425L0.627339 5.14216ZM8.29833 8.52055L15.224 5.14216L14.4787 3.61425L7.55301 6.99264L8.29833 8.52055ZM15.224 3.61425L8.29832 0.236039L7.55303 1.76396L14.4787 5.14217L15.224 3.61425ZM7.55303 0.236039L0.627355 3.61425L1.37264 5.14217L8.29832 1.76396L7.55303 0.236039ZM0.15 4.37821V13.1622H1.85V4.37821H0.15ZM0.627339 13.9261L7.55301 17.3045L8.29833 15.7766L1.37266 12.3982L0.627339 13.9261ZM8.29833 17.3045L15.224 13.9261L14.4787 12.3982L7.55301 15.7766L8.29833 17.3045ZM15.7013 13.1622V4.37821H14.0013V13.1622H15.7013ZM7.07567 7.75659V16.5406H8.77567V7.75659H7.07567ZM14.4787 5.14216L21.4044 8.52055L22.1497 6.99264L15.224 3.61425L14.4787 5.14216ZM22.1497 8.52055L29.0754 5.14216L28.33 3.61425L21.4044 6.99264L22.1497 8.52055ZM29.0753 3.61425L22.1497 0.236039L21.4044 1.76396L28.33 5.14217L29.0753 3.61425ZM21.4044 0.236039L14.4787 3.61425L15.224 5.14217L22.1497 1.76396L21.4044 0.236039ZM14.4787 13.9261L21.4044 17.3045L22.1497 15.7766L15.224 12.3982L14.4787 13.9261ZM22.1497 17.3045L29.0754 13.9261L28.33 12.3982L21.4044 15.7766L22.1497 17.3045ZM29.5527 13.1622V4.37821H27.8527V13.1622H29.5527ZM20.927 7.75659V16.5406H22.627V7.75659H20.927ZM7.553 17.3045L14.4787 20.683L15.224 19.1551L8.29834 15.7766L7.553 17.3045ZM15.224 20.683L22.1497 17.3045L21.4044 15.7766L14.4787 19.1551L15.224 20.683ZM14.0013 19.9191V28.7027H15.7013V19.9191H14.0013ZM7.07567 16.5406V25.3243H8.77567V16.5406H7.07567ZM7.55301 26.0882L14.4787 29.4666L15.224 27.9387L8.29834 24.5603L7.55301 26.0882ZM15.224 29.4666L22.1497 26.0882L21.4044 24.5603L14.4787 27.9387L15.224 29.4666ZM22.627 25.3243V16.5406H20.927V25.3243H22.627Z" fill="white"/>
</svg>
